<svg height="800" width="800" xmlns="http://www.w3.org/2000/svg" viewBox="0 0 512.001 512.001"><path d="M248.399.135C135.421 4.152 47.514 100.436 47.514 213.484V508.8c0 2.792 3.432 4.127 5.319 2.069l57.191-62.39c3.756-4.098 10.216-4.098 13.971 0l55.336 60.365c3.858 4.209 10.493 4.209 14.35 0l55.334-60.365c3.756-4.098 10.216-4.098 13.971 0l55.334 60.365c3.858 4.209 10.493 4.209 14.35 0l55.336-60.365c3.756-4.098 10.216-4.098 13.971 0l57.191 62.39c1.887 2.059 5.319.724 5.319-2.069V208.486C464.489 90.819 367.009-4.082 248.399.135z" fill="#ffa05a"/><path d="M151.758 227.632c0-107.205 79.072-199.275 183.593-211.938C308.687 4.707 279.273-.963 248.399.135 135.421 4.152 47.514 100.436 47.514 213.484V508.8c0 2.792 3.432 4.127 5.319 2.069l57.191-62.39c3.755-4.098 10.216-4.098 13.971 0l27.762 30.285V227.632h.001z" fill="#f08c46"/><path d="M186.385 303.255c-31.001 0-56.132-25.131-56.132-56.132v-20.412c0-31.001 25.131-56.132 56.132-56.132 31.001 0 56.132 25.131 56.132 56.132v20.412c-.002 31.001-25.132 56.132-56.132 56.132z" fill="#fff"/><path d="M217.002 293.049c-31.001 0-56.132-25.131-56.132-56.132v-20.412c0-18.952 9.419-35.676 23.803-45.839-30.201.912-54.421 25.621-54.421 56.045v20.412c0 31.001 25.131 56.132 56.132 56.132 12.048 0 23.184-3.831 32.327-10.292-.572.017-1.132.086-1.709.086z" fill="#e4eaf6"/><path d="M201.693 262.431c-11.273 0-20.412-9.138-20.412-20.412v-10.205c0-11.273 9.138-20.412 20.412-20.412 11.273 0 20.412 9.138 20.412 20.412v10.205c0 11.275-9.139 20.412-20.412 20.412z" fill="#82b9ff"/><path d="M325.619 303.255c-31.001 0-56.132-25.131-56.132-56.132v-20.412c0-31.001 25.131-56.132 56.132-56.132 31.001 0 56.132 25.131 56.132 56.132v20.412c-.001 31.001-25.132 56.132-56.132 56.132z" fill="#fff"/><path d="M356.236 293.049c-31.001 0-56.132-25.131-56.132-56.132v-20.412c0-18.952 9.419-35.676 23.804-45.839-30.201.912-54.421 25.621-54.421 56.045v20.412c0 31.001 25.131 56.132 56.132 56.132 12.048 0 23.184-3.831 32.327-10.292-.572.017-1.132.086-1.71.086z" fill="#e4eaf6"/><path d="M340.927 262.431c-11.273 0-20.412-9.138-20.412-20.412v-10.205c0-11.273 9.138-20.412 20.412-20.412 11.273 0 20.412 9.138 20.412 20.412v10.205c0 11.275-9.138 20.412-20.412 20.412z" fill="#82b9ff"/></svg>